<?xml version="1.0" encoding="UTF-8"?><svg id="Layer_1" xmlns="http://www.w3.org/2000/svg" viewBox="0 0 180 50"><defs><style>.cls-1{fill:#fff;}</style></defs><path class="cls-1" d="m40.27,14.5h-.09c-.05,0-.11,0-.16.02l-14.25,3.91c-.26.07-.44.31-.44.58h0c0,.27.18.51.44.58l8.78,2.42h0l5.46,1.5c.05.01.11.02.16.02h.09c.05,0,.11,0,.16-.02l5.46-1.5h0l8.78-2.42c.26-.07.44-.31.44-.58h0c0-.27-.18-.51-.44-.58l-14.25-3.91c-.05-.01-.1-.02-.16-.02Z"/><path class="cls-1" d="m40.42,24.67h-.4c-.05,0-.11,0-.16-.02l-7.29-2c-.1-.03-.21-.03-.32,0l-6.49,1.78c-.26.07-.44.31-.44.58h0c0,.27.18.51.44.58l8.79,2.42,5.46,1.5c.05.01.11.02.16.02h.09c.05,0,.11,0,.16-.02l5.46-1.5,8.79-2.42c.26-.07.44-.31.44-.58h0c0-.27-.18-.51-.44-.58l-6.49-1.78c-.1-.03-.21-.03-.32,0l-7.29,2c-.05.01-.11.02-.16.02Z"/><path class="cls-1" d="m40.42,30.65h-.4c-.05,0-.11,0-.16-.02l-7.29-2c-.1-.03-.21-.03-.32,0l-6.49,1.78c-.26.07-.44.31-.44.58h0c0,.27.18.51.44.58l14.25,3.91c.05.01.11.02.16.02h.09c.05,0,.11,0,.16-.02l14.25-3.91c.26-.07.44-.31.44-.58h0c0-.27-.18-.51-.44-.58l-6.49-1.78c-.1-.03-.21-.03-.32,0l-7.29,2c-.05.01-.11.02-.16.02Z"/><polygon class="cls-1" points="62.84 33.02 62.84 17.52 66.58 17.52 66.58 23.65 73.35 23.65 73.35 17.52 77.09 17.52 77.09 33.02 73.35 33.02 73.35 26.67 66.58 26.67 66.58 33.02 62.84 33.02"/><path class="cls-1" d="m89.35,29.16c-.57,2.48-2.51,4.16-5.37,4.16-3.47,0-5.93-2.12-5.93-5.59s2.51-5.93,5.86-5.93c3.62,0,5.51,2.49,5.51,5.46v1.08h-7.88c.1,1.45,1.18,2.29,2.56,2.29,1.23,0,1.99-.47,2.39-1.48h2.86Zm-3.35-2.71c-.07-1.08-.76-2.07-2.12-2.07-1.42,0-2.09.91-2.29,2.07h4.41Z"/><path class="cls-1" d="m107.11,33.03v-12.43h-5.39v-3.08h14.57v3.08h-5.46v12.43h-3.72Z"/><path class="cls-1" d="m122.28,25.57c-.57-.32-1.11-.44-1.87-.44-1.48,0-2.46.84-2.46,2.73v5.17h-3.54v-10.93h3.55v1.99c.42-1.23,1.55-2.29,3.03-2.29.67,0,1.23.2,1.53.44l-.22,3.33Z"/><path class="cls-1" d="m130.84,22.11h3.57v10.93h-3.57v-1.7c-.59,1.23-1.82,1.99-3.47,1.99-2.95,0-3.89-2.02-3.89-4.36v-6.86h3.54v6c0,1.55.52,2.42,1.82,2.42s1.99-1.11,1.99-2.85v-5.56Z"/><path class="cls-1" d="m138.52,29.39c.14,1.06.99,1.65,2.31,1.65.96,0,1.6-.34,1.6-.93,0-.54-.34-.84-1.23-.99l-1.67-.27c-2.51-.39-3.86-1.26-3.86-3.42s1.85-3.62,4.77-3.62c3.1,0,4.95,1.38,5.17,3.72l-2.93.1c-.17-.96-.94-1.5-2.29-1.5-.89,0-1.42.37-1.42.96,0,.44.35.71.89.79l2.12.36c2.39.37,3.77,1.42,3.77,3.52,0,2.29-1.94,3.57-4.92,3.57s-5.19-1.21-5.39-3.87l3.1-.07Z"/><polygon class="cls-1" points="96.98 26.83 100.62 22.1 96.93 22.1 95.2 24.46 96.98 26.83"/><polygon class="cls-1" points="98.62 29.9 98.62 29.91 96.63 27.29 94.84 24.95 92.79 22.1 88.83 22.1 92.82 27.44 88.49 33.03 92.18 33.03 94.61 29.78 97.03 33.03 100.99 33.03 98.62 29.9"/><path class="cls-1" d="m152.9,30.47c-.84,0-1.28-.39-1.28-1.33v-4.55h0v-2.48h0v-3.03h-2.19l-.37,1.45c-.27,1.01-.59,1.58-1.67,1.77l-.79.12v2.16h1.53v5.51c0,2.46,1.6,3.22,3.37,3.22,1.42,0,2.36-.34,3.17-.96v-2.34c-.66.3-1.23.44-1.77.44Z"/><rect class="cls-1" x="152.23" y="22.1" width="2.29" height="2.49"/></svg>