<?xml version="1.0" encoding="UTF-8"?><svg id="Layer_1" xmlns="http://www.w3.org/2000/svg" viewBox="0 0 180 50"><defs><style>.cls-1,.cls-2{fill:#fff;}.cls-3{fill:#784ffe;}.cls-2{fill-rule:evenodd;}</style></defs><path class="cls-3" d="m67.53,25c0-8.28-6.72-15-15-15s-15,6.72-15,15,6.72,15,15,15,15-6.72,15-15Z"/><path class="cls-2" d="m46.79,21.27l10.58-.05-2.53,3.82,5.98-.03-2.53,3.75-10.64.07,2.57-3.79h-5.95s2.54-3.77,2.54-3.77Z"/><path class="cls-1" d="m77.99,30.93v-2.76l6.29-7.75h-6.14v-2.71h10.14v2.56l-6.44,7.9h6.57v2.76h-10.42Zm17.58-4.05h-.39c-.34,0-.68.02-1.03.06-.34.02-.64.08-.91.17-.26.09-.48.22-.65.39-.17.16-.26.38-.26.65,0,.17.04.32.11.45.09.12.19.22.32.3.12.07.27.13.43.17.16.02.32.04.47.04.62,0,1.1-.17,1.42-.5.34-.35.5-.82.5-1.4v-.32Zm-5.62-3.98c.55-.52,1.18-.91,1.9-1.18.73-.26,1.48-.39,2.24-.39s1.44.1,1.98.3c.55.19.99.49,1.33.9.34.4.58.91.73,1.53.16.61.24,1.34.24,2.18v4.69h-2.8v-.99h-.06c-.24.39-.6.68-1.08.9-.47.21-.99.32-1.55.32-.37,0-.76-.05-1.16-.15-.4-.1-.77-.26-1.1-.49-.32-.22-.59-.52-.8-.9-.21-.37-.32-.83-.32-1.38,0-.67.18-1.21.54-1.62.37-.41.85-.73,1.42-.95.58-.22,1.23-.37,1.94-.45.71-.07,1.4-.11,2.07-.11v-.15c0-.46-.16-.8-.49-1.01-.32-.22-.72-.34-1.19-.34-.44,0-.86.09-1.27.28-.4.19-.74.41-1.03.67l-1.55-1.66Zm21.04,3.34c0,.65-.1,1.27-.3,1.87-.2.6-.49,1.13-.88,1.59-.37.45-.83.81-1.38,1.08-.55.27-1.17.41-1.87.41-.57,0-1.11-.11-1.62-.34-.51-.24-.91-.55-1.19-.95h-.04v5.51h-3.06v-13.78h2.91v1.14h.06c.29-.37.68-.7,1.18-.97.51-.29,1.11-.43,1.79-.43s1.28.13,1.83.39c.55.26,1.01.62,1.38,1.06.39.45.68.97.88,1.57.21.58.32,1.2.32,1.85Zm-2.97,0c0-.3-.05-.59-.15-.88-.09-.29-.22-.54-.41-.75-.17-.22-.4-.4-.67-.54-.27-.14-.59-.21-.95-.21s-.66.07-.93.21c-.27.14-.51.32-.71.54-.19.22-.34.48-.45.77-.1.29-.15.58-.15.88s.05.59.15.88c.11.29.26.54.45.77.2.22.44.4.71.54.27.14.58.21.93.21s.68-.07.95-.21c.27-.14.5-.32.67-.54.19-.22.32-.48.41-.77.1-.3.15-.6.15-.9Zm15.24,0c0,.65-.1,1.27-.3,1.87s-.49,1.13-.88,1.59c-.37.45-.83.81-1.38,1.08-.55.27-1.17.41-1.87.41-.57,0-1.11-.11-1.62-.34-.51-.24-.91-.55-1.19-.95h-.04v5.51h-3.06v-13.78h2.91v1.14h.06c.29-.37.68-.7,1.18-.97.51-.29,1.11-.43,1.79-.43s1.28.13,1.83.39,1.01.62,1.38,1.06c.39.45.68.97.88,1.57.21.58.32,1.2.32,1.85Zm-2.97,0c0-.3-.05-.59-.15-.88-.09-.29-.22-.54-.41-.75-.17-.22-.4-.4-.67-.54s-.59-.21-.95-.21-.66.07-.93.21c-.27.14-.51.32-.71.54-.19.22-.34.48-.45.77-.1.29-.15.58-.15.88s.05.59.15.88c.11.29.26.54.45.77.2.22.44.4.71.54.27.14.58.21.93.21s.68-.07.95-.21c.27-.14.5-.32.67-.54.19-.22.32-.48.41-.77.1-.3.15-.6.15-.9Zm11.3-1.03c0-.49-.16-.9-.47-1.25-.3-.35-.75-.52-1.36-.52-.3,0-.57.05-.82.15-.25.09-.47.21-.65.37-.19.16-.34.35-.45.58-.11.21-.17.44-.19.67h3.94Zm2.82,1.18v.37c0,.12,0,.24-.02.35h-6.74c.02.26.1.5.22.71.14.21.3.4.5.56.21.15.44.27.69.35.26.09.53.13.8.13.49,0,.9-.09,1.23-.26.34-.19.61-.42.82-.71l2.13,1.34c-.44.63-1.01,1.13-1.74,1.47-.71.34-1.54.5-2.48.5-.7,0-1.36-.11-1.98-.32-.62-.22-1.17-.54-1.64-.95-.46-.42-.83-.94-1.1-1.55-.26-.61-.39-1.31-.39-2.09s.13-1.44.39-2.05c.26-.62.62-1.14,1.06-1.57.45-.44.98-.77,1.59-1.01s1.27-.35,1.98-.35,1.31.12,1.89.35c.57.22,1.06.55,1.47.99s.73.96.95,1.59c.24.62.35,1.33.35,2.13Zm7.93-2.26c-.14-.04-.27-.06-.41-.07-.12-.01-.25-.02-.37-.02-.41,0-.76.07-1.05.22-.27.15-.5.33-.67.54-.16.21-.28.44-.35.69-.07.25-.11.47-.11.65v4.78h-3.06v-9.3h2.95v1.34h.04c.24-.47.57-.86,1.01-1.16.44-.3.94-.45,1.51-.45.12,0,.24,0,.35.02.12.01.22.03.3.06l-.13,2.69Z"/></svg>