<?xml version="1.0" encoding="UTF-8"?>
<svg id="Layer_1" data-name="Layer 1" xmlns="http://www.w3.org/2000/svg" viewBox="0 0 180 50">
  <defs>
    <style>
      .cls-1 {
        fill: #fff;
      }
    </style>
  </defs>
  <path class="cls-1" d="m154.6,33.7c-.06.01-.12.04-.18.04-1.2,0-2.41,0-3.61,0-.04,0-.08,0-.15-.02v-13.97c-.1.19-.53,2.34-.96,4.66-.29,1.56-.61,3.11-.91,4.67-.3,1.55-.61,3.1-.91,4.65h-3.28c-.96-4.65-1.92-9.29-2.89-13.94-.02,0-.03,0-.05,0v13.93h-3.78V15.78s.1-.02.14-.02c1.94,0,3.89,0,5.83,0,.03,0,.06,0,.09,0,.09,0,.13.03.15.13.22,1.22.45,2.44.68,3.66.28,1.5.56,3,.85,4.51.2,1.09.41,2.18.61,3.27.01.07.04.14.05.21.02,0,.03,0,.05,0,.71-3.91,1.42-7.83,2.13-11.76.06,0,.11-.01.17-.01,1.91,0,3.81,0,5.72,0,.08,0,.16.01.24.02v17.91Z"/>
  <path class="cls-1" d="m45,10c.04.15.07.3.12.45.42,1.29.84,2.57,1.26,3.86.02.05.03.11.05.18-.08,0-.15,0-.21,0-1.03,0-2.06,0-3.08,0-3.66,0-7.32,0-10.98,0-.66,0-1.32.01-1.97.02-.07,0-.14,0-.23,0,.02-.08.04-.15.06-.21.45-1.41.91-2.81,1.36-4.22,0-.03.01-.06.02-.09,4.54,0,9.08,0,13.62,0Z"/>
  <path class="cls-1" d="m50.87,10s0,.09.02.13c.63,1.94,1.27,3.88,1.9,5.82.74,2.28,1.48,4.55,2.22,6.83.02.06.03.12.05.19-1.26.92-2.51,1.83-3.79,2.76-.07-.21-.13-.39-.19-.57-.38-1.16-.76-2.32-1.13-3.48-.42-1.3-.85-2.61-1.27-3.91-.52-1.58-1.03-3.17-1.55-4.75-.3-.94-.61-1.87-.91-2.81-.02-.07-.03-.13-.05-.2,1.57,0,3.14,0,4.7,0Z"/>
  <path class="cls-1" d="m93.67,33.74c-.1,0-.15,0-.2,0-1.44,0-2.87,0-4.31,0-.31,0-.24.03-.37-.24-.7-1.46-1.39-2.92-2.09-4.38-.39-.82-.78-1.64-1.17-2.46-.03-.06-.05-.11-.08-.17q-.07-.14-.27-.12v7.32c-.16.05-3.82.07-4.22.03-.04-.12-.05-17.61-.02-17.95.04,0,.08-.02.12-.02,2.42,0,4.84,0,7.26,0,.58,0,1.15.09,1.7.26,1.01.31,1.76.94,2.26,1.87.38.7.55,1.46.57,2.26.01.62,0,1.23-.14,1.83-.37,1.65-1.34,2.84-2.81,3.64-.1.05-.2.1-.32.17.68,1.33,1.36,2.64,2.04,3.96.68,1.32,1.36,2.64,2.06,3.99Zm-8.49-10.41s.05.02.07.02c.53,0,1.05,0,1.58-.03.7-.05,1.22-.4,1.52-1.03.38-.8.37-1.62.09-2.45-.11-.34-.34-.61-.65-.8-.26-.16-.55-.25-.85-.27-.56-.03-1.13-.02-1.69-.03-.02,0-.04.01-.06.02v4.57Z"/>
  <path class="cls-1" d="m109.85,15.78h4.22v6.67c.17.05,3.13.06,3.36.01.02-2.22,0-4.44,0-6.68h4.22v17.95h-4.22c0-1.28,0-2.55,0-3.82,0-1.27.01-2.54-.01-3.83h-3.35c-.03.43-.01.85-.01,1.27,0,.42,0,.84,0,1.26,0,.43,0,.85,0,1.28,0,.43,0,.85,0,1.28v2.54c-.13.04-3.88.06-4.22.02V15.78Z"/>
  <path class="cls-1" d="m99.62,33.73h-4.21s0,0-.01-.01c0,0-.01,0-.01-.01,0-.03,0-.06,0-.09,0-5.92,0-11.85,0-17.77,0-.02.01-.03.02-.06h4.22v7.05h.04s.08-.1.11-.16c.99-1.78,1.99-3.57,2.98-5.35.26-.47.53-.94.78-1.41.05-.08.09-.14.2-.13,1.44,0,2.88,0,4.33,0,.02,0,.05,0,.09.02-.03.06-.05.11-.08.15-1.1,1.82-2.21,3.63-3.31,5.45-.4.66-.8,1.32-1.2,1.97-.07.12-.07.2,0,.32.52.98,1.02,1.97,1.53,2.95.53,1.02,1.05,2.04,1.58,3.05.52,1,1.03,1.99,1.54,2.99.15.28.3.57.44.85.03.05.05.11.09.19-.06,0-.11.02-.15.02-1.48,0-2.96,0-4.44,0-.13,0-.19-.05-.24-.16-.61-1.27-1.22-2.54-1.82-3.81-.42-.87-.83-1.74-1.25-2.61-.02-.05-.05-.1-.09-.16-.03.04-.06.06-.08.09-.32.49-.64.99-.97,1.48-.06.09-.09.19-.09.3,0,1.54,0,3.08,0,4.63v.23Z"/>
  <path class="cls-1" d="m70.3,15.77c.07,0,.13,0,.19,0,1.61,0,3.22,0,4.83,0,.04,0,.09,0,.13,0,.11-.01.15.04.17.15.69,2.78,1.38,5.55,2.07,8.33.55,2.22,1.11,4.44,1.66,6.65.22.9.45,1.8.67,2.7,0,.04.02.07.02.11-.14.05-4.02.06-4.37.02-.22-1.13-.43-2.26-.65-3.4h-4.3c-.21,1.13-.42,2.26-.63,3.4h-4.38c1.53-5.98,3.05-11.96,4.58-17.96Zm4.08,11.26s0-.07,0-.1c-.5-2.62-1.01-5.23-1.52-7.85,0,0,0,0-.01,0,0,0-.01,0-.04,0-.49,2.64-.98,5.29-1.48,7.96h3.04Z"/>
  <path class="cls-1" d="m131.85,30.32h-4.3c-.21,1.13-.42,2.26-.62,3.38-.15.04-4.11.05-4.38.01,1.52-5.98,3.05-11.95,4.57-17.95,1.76,0,3.52,0,5.29,0,1.49,5.99,2.98,11.97,4.48,17.96h-4.38c-.22-1.13-.43-2.26-.65-3.41Zm-2.16-11.25c-.1.13-1.51,7.73-1.51,7.94.2.04,2.88.03,3.03-.02-.51-2.64-1.01-5.28-1.52-7.92Z"/>
  <path class="cls-1" d="m44.94,37.23c-1.28.93-2.53,1.85-3.8,2.77-3.67-2.66-7.33-5.31-10.98-7.96,0-.14,1.32-4.24,1.44-4.49,4.44,3.22,8.88,6.44,13.34,9.68Z"/>
  <path class="cls-1" d="m45.89,36.54c-1.27-.92-2.52-1.83-3.8-2.76,4.45-3.24,8.89-6.47,13.35-9.72.49,1.5.97,2.98,1.46,4.48-3.66,2.66-7.33,5.33-11,8Z"/>
  <path class="cls-1" d="m29.18,31.33c-.31-.23-.59-.43-.87-.64-.92-.67-1.84-1.33-2.75-2-.17-.12-.17-.12-.11-.32.2-.63.4-1.25.61-1.88.68-2.08,1.35-4.17,2.03-6.25.48-1.48.96-2.95,1.44-4.43.06-.19.06-.19.26-.19,1.41,0,2.82,0,4.23,0,.07,0,.15,0,.22,0,.04.11-.01.18-.04.26-.27.85-.55,1.69-.82,2.54-.75,2.32-1.5,4.63-2.25,6.95-.59,1.83-1.19,3.66-1.78,5.49-.05.15-.09.3-.15.47Z"/>
  <path class="cls-1" d="m35.74,29.18c-1.28-.93-2.54-1.84-3.8-2.76.08-.25.16-.49.23-.73.47-1.44.93-2.88,1.4-4.32q.06-.19.26-.19c1.4,0,2.81,0,4.21,0,.08,0,.16,0,.23,0,.02.02.02.03.03.03,0,0,0,.01,0,.02,0,.03,0,.06-.02.09-.85,2.61-1.69,5.22-2.55,7.85Z"/>
  <path class="cls-1" d="m48.87,21.94c.49,1.5.97,2.98,1.46,4.47-1.48,1.07-2.96,2.14-4.44,3.23-1.26-.91-2.52-1.83-3.81-2.76,2.27-1.66,4.52-3.29,6.79-4.94Z"/>
  <path class="cls-1" d="m44.94,30.33c-1.28.93-2.53,1.84-3.81,2.77-1.48-1.07-2.96-2.14-4.45-3.22.48-1.49.96-2.97,1.45-4.47,2.27,1.65,4.53,3.28,6.8,4.93Z"/>
  <path class="cls-1" d="m42.38,20.08h-8.36c.02-.06.02-.11.04-.15.45-1.39.9-2.78,1.35-4.16.04-.14.04-.14.22-.14,1.08,0,2.16,0,3.24,0,.64,0,1.28,0,1.92,0,.16,0,.16,0,.21.15.46,1.4.91,2.8,1.37,4.2,0,.03.01.06.02.11Z"/>
  <path class="cls-1" d="m42.13,15.61h4.68c.57,1.74,1.13,3.47,1.7,5.21-1.26.92-2.51,1.83-3.77,2.74-.09-.12-2.54-7.6-2.61-7.96Z"/>
</svg>